<svg width="10" height="10" viewBox="0 0 10 10" fill="none" xmlns="http://www.w3.org/2000/svg">
<path d="M8.75 1.875H1.25C1.08424 1.875 0.925268 1.94085 0.808058 2.05806C0.690848 2.17527 0.625 2.33424 0.625 2.5V7.5C0.625 7.66576 0.690848 7.82473 0.808058 7.94194C0.925268 8.05915 1.08424 8.125 1.25 8.125H8.75C8.91576 8.125 9.07473 8.05915 9.19194 7.94194C9.30915 7.82473 9.375 7.66576 9.375 7.5V2.5C9.375 2.33424 9.30915 2.17527 9.19194 2.05806C9.07473 1.94085 8.91576 1.875 8.75 1.875ZM8.75 3.75L5 5.625L1.25 3.75V2.5L5 4.375L8.75 2.5V3.75Z" fill="#42A5F5"/>
</svg>
