<svg width="10" height="10" viewBox="0 0 10 10" fill="none" xmlns="http://www.w3.org/2000/svg">
<g clip-path="url(#clip0_80_567)">
<path d="M7.65625 0H2.34375C1.04933 0 0 1.04933 0 2.34375V7.65625C0 8.95067 1.04933 10 2.34375 10H7.65625C8.95067 10 10 8.95067 10 7.65625V2.34375C10 1.04933 8.95067 0 7.65625 0Z" fill="white"/>
<path d="M7.65625 0H2.34375C1.04933 0 0 1.04933 0 2.34375V7.65625C0 8.95067 1.04933 10 2.34375 10H7.65625C8.95067 10 10 8.95067 10 7.65625V2.34375C10 1.04933 8.95067 0 7.65625 0Z" fill="#0A66C2"/>
<path d="M7.21543 8.50332H8.35879C8.40022 8.50332 8.43996 8.48686 8.46926 8.45757C8.49856 8.42828 8.51503 8.38854 8.51504 8.34711L8.51562 5.93141C8.51562 4.66879 8.24355 3.69828 6.76805 3.69828C6.20715 3.67742 5.6782 3.96656 5.39277 4.44937C5.39138 4.45172 5.38925 4.45354 5.38672 4.45457C5.3842 4.45559 5.3814 4.45576 5.37877 4.45505C5.37613 4.45434 5.3738 4.45278 5.37214 4.45062C5.37047 4.44846 5.36955 4.44581 5.36953 4.44309V3.97109C5.36953 3.92965 5.35307 3.88991 5.32377 3.86061C5.29446 3.83131 5.25472 3.81484 5.21328 3.81484H4.12824C4.0868 3.81484 4.04706 3.83131 4.01776 3.86061C3.98845 3.88991 3.97199 3.92965 3.97199 3.97109V8.34687C3.97199 8.38831 3.98845 8.42806 4.01776 8.45736C4.04706 8.48666 4.0868 8.50312 4.12824 8.50312H5.27152C5.31296 8.50312 5.35271 8.48666 5.38201 8.45736C5.41131 8.42806 5.42777 8.38831 5.42777 8.34687V6.18387C5.42777 5.57227 5.54379 4.97996 6.30203 4.97996C7.04949 4.97996 7.05918 5.6798 7.05918 6.22348V8.34707C7.05918 8.38851 7.07564 8.42825 7.10494 8.45756C7.13425 8.48686 7.17399 8.50332 7.21543 8.50332ZM1.48438 2.32922C1.48438 2.79266 1.8659 3.17398 2.32938 3.17398C2.79273 3.17395 3.17402 2.79238 3.17402 2.32902C3.17395 1.86566 2.79262 1.48438 2.32922 1.48438C1.8657 1.48438 1.48438 1.86578 1.48438 2.32922ZM1.75621 8.50332H2.90102C2.94246 8.50332 2.9822 8.48686 3.0115 8.45756C3.0408 8.42825 3.05727 8.38851 3.05727 8.34707V3.97109C3.05727 3.92965 3.0408 3.88991 3.0115 3.86061C2.9822 3.83131 2.94246 3.81484 2.90102 3.81484H1.75621C1.71477 3.81484 1.67503 3.83131 1.64573 3.86061C1.61642 3.88991 1.59996 3.92965 1.59996 3.97109V8.34707C1.59996 8.38851 1.61642 8.42825 1.64573 8.45756C1.67503 8.48686 1.71477 8.50332 1.75621 8.50332Z" fill="white"/>
</g>
<defs>
<clipPath id="clip0_80_567">
<rect width="10" height="10" fill="white"/>
</clipPath>
</defs>
</svg>
