<svg width="35" height="40" viewBox="0 0 35 40" fill="none" xmlns="http://www.w3.org/2000/svg">
<g clip-path="url(#clip0_1_2534)">
<path d="M22.7018 8.06286C22.7018 8.06286 21.1349 4.66875 24.492 1.64241C24.492 1.64241 28.0692 -0.956935 31.538 1.05958C31.538 1.05958 34.5568 3.55296 34.2775 5.88738C34.2775 5.88738 34.7243 9.76147 29.5802 11.6159L26.729 11.6689L19.1246 17.7683C19.1246 17.7683 16.4967 19.6259 18.7337 21.0565L26.3939 28.1127H29.1335C29.1335 28.1127 35.4502 29.8643 34.2775 35.5399C34.2775 35.5399 33.1049 39.0399 28.5192 39.5729C28.5192 39.5729 23.7102 39.7848 22.4817 34.5862L22.6492 32.2517L14.0955 24.4537C14.0955 24.4537 10.7416 22.2252 10.1241 25.6193L10.0124 34.3742C10.0124 34.3742 9.67736 37.2915 6.26769 38.3543L4.58914 38.4073C4.58914 38.4073 1.90542 37.9834 0.788574 34.6391L1.01194 17.2385C1.01194 17.2385 1.90542 12.8346 6.26769 12.9405C6.26769 12.9405 8.44883 12.7286 9.95657 14.5862C9.95657 14.5862 11.8027 17.0265 14.7097 14.5862L22.705 8.05974L22.7018 8.06286Z" fill="#A100FF"/>
<path d="M28.5157 40.0797C32.0351 40.0797 34.8883 37.3726 34.8883 34.0333C34.8883 30.6939 32.0351 27.9868 28.5157 27.9868C24.9962 27.9868 22.1431 30.6939 22.1431 34.0333C22.1431 37.3726 24.9962 40.0797 28.5157 40.0797Z" fill="#A100FF"/>
<path d="M28.6835 11.9869C32.1721 11.9869 35.0002 9.30355 35.0002 5.99345C35.0002 2.68336 32.1721 0 28.6835 0C25.1948 0 22.3667 2.68336 22.3667 5.99345C22.3667 9.30355 25.1948 11.9869 28.6835 11.9869Z" fill="#A100FF"/>
<path d="M6.03754 11.7749C9.37198 11.7749 12.0751 9.21019 12.0751 6.0464C12.0751 2.88262 9.37198 0.317871 6.03754 0.317871C2.7031 0.317871 0 2.88262 0 6.0464C0 9.21019 2.7031 11.7749 6.03754 11.7749Z" fill="#A100FF"/>
</g>
<defs>
<clipPath id="clip0_1_2534">
<rect width="35" height="40" fill="white"/>
</clipPath>
</defs>
</svg>
