<svg width="24" height="24" viewBox="0 0 24 24" fill="none" xmlns="http://www.w3.org/2000/svg">
<path d="M12 14.423C12.1747 14.423 12.321 14.364 12.439 14.246C12.5563 14.128 12.615 13.982 12.615 13.808C12.615 13.634 12.556 13.4877 12.438 13.369C12.32 13.2503 12.174 13.1913 12 13.192C11.826 13.1927 11.68 13.2517 11.562 13.369C11.444 13.4863 11.385 13.6327 11.385 13.808C11.385 13.9833 11.444 14.1293 11.562 14.246C11.68 14.3627 11.826 14.4217 12 14.423ZM11.5 11.462H12.5V5.385H11.5V11.462ZM3 20.077V3H21V17H6.077L3 20.077ZM5.65 16H20V4H4V17.644L5.65 16Z" fill="black"/>
</svg>
