<svg width="108" height="108" viewBox="0 0 108 108" fill="none" xmlns="http://www.w3.org/2000/svg">
<path d="M29.79 48.555C36.27 61.29 46.71 71.685 59.445 78.21L69.345 68.31C70.56 67.095 72.36 66.69 73.935 67.23C78.975 68.895 84.42 69.795 90 69.795C92.475 69.795 94.5 71.82 94.5 74.295V90C94.5 92.475 92.475 94.5 90 94.5C47.745 94.5 13.5 60.255 13.5 18C13.5 15.525 15.525 13.5 18 13.5H33.75C36.225 13.5 38.25 15.525 38.25 18C38.25 23.625 39.15 29.025 40.815 34.065C41.31 35.64 40.95 37.395 39.69 38.655L29.79 48.555Z" fill="#04A8F4"/>
</svg>
