<svg width="10" height="10" viewBox="0 0 10 10" fill="none" xmlns="http://www.w3.org/2000/svg">
<g clip-path="url(#clip0_80_563)">
<path d="M0.211797 4.93996C0.211565 5.78015 0.4311 6.60054 0.848542 7.32364L0.171875 9.79426L2.70025 9.13132C3.39956 9.51201 4.18309 9.71149 4.97932 9.71155H4.98141C7.6099 9.71155 9.74955 7.57267 9.75067 4.94372C9.75118 3.66981 9.25552 2.4719 8.35498 1.57066C7.45459 0.669495 6.25711 0.172945 4.98122 0.172363C2.35242 0.172363 0.212922 2.31112 0.211836 4.93996" fill="url(#paint0_linear_80_563)"/>
<path d="M0.0414729 4.93861C0.0412016 5.80903 0.268605 6.65876 0.70093 7.40775L0 9.96694L2.61903 9.28023C3.34066 9.67368 4.15314 9.88112 4.97988 9.88143H4.98202C7.70481 9.88143 9.92132 7.66562 9.92248 4.94256C9.92295 3.62287 9.40946 2.3819 8.47674 1.44837C7.54392 0.514961 6.30361 0.000542636 4.98202 0C2.25876 0 0.0425581 2.2155 0.0414729 4.93861ZM1.6012 7.27876L1.50341 7.12353C1.09233 6.46988 0.875349 5.71454 0.875659 4.93892C0.876512 2.67554 2.71853 0.834109 4.98357 0.834109C6.08047 0.834574 7.11132 1.26217 7.88667 2.03798C8.66198 2.81388 9.08861 3.84527 9.08833 4.94225C9.08733 7.20562 7.24527 9.04729 4.98202 9.04729H4.98039C4.24345 9.0469 3.5207 8.84899 2.89039 8.475L2.74039 8.38605L1.1862 8.79353L1.6012 7.27876Z" fill="url(#paint1_linear_80_563)"/>
<path d="M3.74726 2.87388C3.65478 2.66834 3.55745 2.66419 3.46951 2.66059C3.39749 2.65749 3.31517 2.65772 3.23292 2.65772C3.15059 2.65772 3.01683 2.68869 2.90377 2.81214C2.79059 2.9357 2.47168 3.23431 2.47168 3.84163C2.47168 4.44896 2.91404 5.03594 2.97571 5.11838C3.03745 5.20066 3.8297 6.48687 5.08443 6.98167C6.12722 7.39287 6.33943 7.31109 6.56575 7.29047C6.79211 7.26993 7.29614 6.99194 7.39897 6.70369C7.50187 6.41547 7.50187 6.16842 7.47102 6.11679C7.44017 6.06535 7.35784 6.03446 7.23439 5.97276C7.11094 5.91105 6.504 5.61237 6.39086 5.57117C6.27769 5.53001 6.1954 5.50946 6.11307 5.63307C6.03075 5.75648 5.79435 6.03446 5.7223 6.11679C5.65032 6.19931 5.57827 6.20958 5.45486 6.14784C5.33133 6.0859 4.93377 5.9557 4.46211 5.5352C4.09513 5.20799 3.84738 4.80392 3.77536 4.68032C3.70335 4.55691 3.76765 4.49001 3.82955 4.42849C3.88501 4.37318 3.95304 4.28435 4.01482 4.21229C4.07637 4.1402 4.09691 4.08877 4.13807 4.00644C4.17928 3.92404 4.15866 3.85194 4.12784 3.7902C4.09691 3.72846 3.85703 3.11795 3.74726 2.87388Z" fill="white"/>
</g>
<defs>
<linearGradient id="paint0_linear_80_563" x1="479.112" y1="962.362" x2="479.112" y2="0.172363" gradientUnits="userSpaceOnUse">
<stop stop-color="#1FAF38"/>
<stop offset="1" stop-color="#60D669"/>
</linearGradient>
<linearGradient id="paint1_linear_80_563" x1="496.124" y1="996.694" x2="496.124" y2="0" gradientUnits="userSpaceOnUse">
<stop stop-color="#F9F9F9"/>
<stop offset="1" stop-color="white"/>
</linearGradient>
<clipPath id="clip0_80_563">
<rect width="9.92248" height="10" fill="white"/>
</clipPath>
</defs>
</svg>
